<?xml version="1.0" encoding="UTF-8" standalone="no"?>
<!-- Created with Inkscape (http://www.inkscape.org/) -->

<svg
   width="800"
   height="200"
   viewBox="0 0 211.66666 52.916668"
   version="1.1"
   id="svg5"
   inkscape:version="1.1 (c68e22c387, 2021-05-23)"
   sodipodi:docname="logo.svg"
   xmlns:inkscape="http://www.inkscape.org/namespaces/inkscape"
   xmlns:sodipodi="http://sodipodi.sourceforge.net/DTD/sodipodi-0.dtd"
   xmlns="http://www.w3.org/2000/svg"
   xmlns:svg="http://www.w3.org/2000/svg">
  <sodipodi:namedview
     id="namedview7"
     pagecolor="#ffffff"
     bordercolor="#666666"
     borderopacity="1.0"
     inkscape:pageshadow="2"
     inkscape:pageopacity="0.52941176"
     inkscape:pagecheckerboard="true"
     inkscape:document-units="mm"
     showgrid="false"
     units="px"
     inkscape:zoom="2.6832492"
     inkscape:cx="363.73811"
     inkscape:cy="207.58415"
     inkscape:window-width="3840"
     inkscape:window-height="2066"
     inkscape:window-x="2989"
     inkscape:window-y="-11"
     inkscape:window-maximized="1"
     inkscape:current-layer="layer1" />
  <defs
     id="defs2" />
  <g
     inkscape:label="Layer 1"
     inkscape:groupmode="layer"
     id="layer1">
    <g
       aria-label="Émeline   Ali"
       id="text781"
       style="font-size:35.2778px;line-height:1.25;letter-spacing:0px;word-spacing:0px;stroke-width:0.264583">
      <path
         d="m 37.380761,27.358342 q -2.187637,0 -4.030764,-0.723471 -2.463245,-0.964627 -2.463245,-2.790529 0,-2.928333 6.407882,-4.874813 4.978166,-1.498618 8.940029,-1.498618 3.961862,0 3.961862,2.601049 0,1.446941 -2.859431,2.790529 -2.514922,1.188559 -4.20302,1.188559 -1.050754,0 -1.050754,-0.8785 0,-0.551216 0.8785,-1.136882 0.809598,-0.551216 1.395264,-0.551216 0.34451,0 0.34451,0.241157 0,0.103353 -0.465088,0.34451 -0.53399,0.275608 -0.637343,0.396186 0.155029,0.137804 0.430637,0.137804 0.895725,0 2.997235,-1.016304 2.273765,-1.102431 2.273765,-1.843127 0,-0.68902 -2.497696,-0.68902 -2.79053,0 -6.631814,0.981853 -2.549372,0.671794 -4.702558,1.550294 -3.479549,1.446941 -3.479549,2.704402 0,1.515843 4.805912,2.135961 2.756078,0.361735 6.132274,0.361735 0.689019,0 0.689019,0.516764 0,0.947402 -2.222088,1.050755 -6.769617,0.310059 -12.901891,3.152265 -6.287304,2.911107 -6.287304,5.822215 0,2.842206 4.874814,2.842206 2.911107,0 5.64996,-1.309137 1.843127,-0.8785 3.651804,-2.411569 1.550294,-1.309137 1.584745,-1.309137 0.396186,0 0.396186,0.964627 0,1.601971 -3.548451,3.66903 -3.54845,2.067058 -7.165803,2.067058 -6.597362,0 -6.597362,-5.253774 0,-3.410647 4.685333,-5.908343 3.135039,-1.670872 7.734244,-2.66995 1.291912,-0.327285 3.910186,-0.654569 z m 8.319911,-12.540156 q -0.37896,0 -0.37896,-0.396186 0,-0.396187 1.860352,-1.705324 1.808677,-1.274686 2.153187,-1.274686 0.413411,0 0.413411,0.551216 0,0.671794 -0.775147,1.102431 l -2.256539,1.274686 q -0.792372,0.447863 -1.016304,0.447863 z"
         style="font-family:'Vladimir Script';-inkscape-font-specification:'Vladimir Script';fill:#7584ae"
         id="path904" />
      <path
         d="m 46.906457,33.714547 -5.494931,4.547529 q -4.151343,3.152265 -5.822215,3.152265 -0.206706,0 -0.206706,-0.223931 0,-0.292834 0.34451,-0.378961 1.25746,-0.310059 1.94648,-0.68902 1.085206,-0.568441 4.547529,-3.324519 1.56752,-1.22301 4.513078,-3.892961 1.102431,-1.154107 1.584745,-1.154107 0.964628,0 0.964628,0.620117 0,0.792373 -1.946481,3.290069 3.755157,-3.445098 5.184873,-3.445098 0.482313,0 0.878499,0.310059 0.396187,0.292833 0.396187,0.757921 0,0.68902 -0.930177,2.015382 3.479549,-3.427872 5.477706,-3.427872 1.154108,0 1.154108,0.930176 0,1.205785 -2.824981,4.099667 -2.807754,2.893882 -2.807754,3.479549 0,0.447862 0.585666,0.465088 0.585667,0 0.585667,0.275608 0,0.344509 -0.999078,0.344509 -1.343589,0 -1.343589,-1.188558 0,-1.343588 2.463245,-4.134118 2.463245,-2.807754 2.463245,-3.135039 0,-0.206706 -0.258382,-0.206706 -1.033529,0 -4.513078,3.255618 -2.876657,2.687176 -4.237471,4.358049 -0.826823,1.033529 -1.223009,1.033529 -0.671794,0 -0.671794,-0.620118 0,-0.637343 2.704401,-3.651803 2.704402,-3.014461 2.704402,-3.720706 0,-0.310059 -0.34451,-0.310059 -0.895725,0 -4.08244,2.997235 -2.738853,2.583824 -3.85851,4.030765 -0.8785,1.136882 -1.533068,1.136882 -0.585667,0 -0.585667,-0.516765 0,-0.654568 2.394343,-3.634578 z"
         style="font-family:'Vladimir Script';-inkscape-font-specification:'Vladimir Script';fill:#7584ae"
         id="path906" />
      <path
         d="m 61.203612,38.623812 q -0.861275,0.206706 -3.238392,1.584745 -2.10151,1.205784 -3.186715,1.205784 -0.206706,0 -0.206706,-0.223931 0,-0.310059 0.447862,-0.378961 1.050755,-0.172255 2.962784,-1.291912 2.10151,-1.205784 3.427873,-1.515843 0.792372,-1.912029 3.272843,-4.013539 2.6355,-2.256539 4.495852,-2.256539 1.378039,0 1.378039,1.171333 0,1.533069 -2.911107,3.341745 -2.135961,1.343588 -4.375274,2.10151 -0.241157,0.551216 -0.241157,1.154108 0,0.895725 0.620117,1.171333 0.310059,0.120578 1.171334,0.155029 0.620117,0.01723 0.620117,0.292834 0,0.430637 -2.118735,0.430637 -2.239313,0 -2.239313,-1.94648 0,-0.447863 0.120578,-0.981853 z m 2.273764,-0.964628 q 1.584745,-0.775147 3.341745,-2.101509 2.342667,-1.739775 2.342667,-2.756079 0,-0.413411 -0.378961,-0.413411 -1.119657,0 -3.048911,2.067058 -1.722549,1.877579 -2.25654,3.203941 z"
         style="font-family:'Vladimir Script';-inkscape-font-specification:'Vladimir Script';fill:#7584ae"
         id="path908" />
      <path
         d="m 74.484466,35.850508 -4.254696,3.203941 q -3.445097,2.359892 -5.047068,2.359892 -0.206706,0 -0.206706,-0.206706 0,-0.327284 0.637343,-0.430637 0.723471,-0.103353 1.670873,-0.620118 1.136882,-0.602892 3.875735,-2.6355 1.998157,-1.446941 4.220245,-3.203941 2.566598,-3.841284 7.06245,-8.337136 4.995392,-4.995392 6.700715,-4.995392 0.792373,0 0.792373,0.844049 0,2.170412 -5.098745,6.941872 -3.221166,2.997235 -7.010774,5.80499 -0.8785,0.654568 -2.187637,2.773304 -1.360814,2.170411 -1.360814,3.066137 0,0.430637 0.947402,0.430637 0.223932,0 0.223932,0.275608 0,0.344509 -0.895726,0.344509 -1.41249,0 -1.41249,-1.446941 0,-1.41249 1.343588,-4.168568 z M 89.022779,21.518901 q -0.671794,0 -5.322676,5.253774 -4.426951,5.029843 -5.632735,6.907421 11.26547,-9.146734 11.26547,-11.885587 0,-0.275608 -0.310059,-0.275608 z"
         style="font-family:'Vladimir Script';-inkscape-font-specification:'Vladimir Script';fill:#7584ae"
         id="path910" />
      <path
         d="m 90.917585,28.443548 q -0.826824,0 -0.826824,-0.844049 0,-0.706245 0.844049,-1.274686 0.757922,-0.516765 1.515843,-0.516765 0.895726,0 0.895726,0.981853 0,0.706245 -0.895726,1.205784 -0.775147,0.447863 -1.533068,0.447863 z m -7.613667,11.937264 q 0,0.465088 0.999079,0.465088 0.223931,0 0.223931,0.275608 0,0.327284 -1.136882,0.327284 -1.291912,0 -1.291912,-1.240235 0,-1.446941 3.841284,-6.046147 l -4.702558,3.841284 q -4.168569,3.410647 -6.046147,3.410647 -0.206706,0 -0.206706,-0.223931 0,-0.310059 0.34451,-0.378961 1.085206,-0.206706 1.980931,-0.706245 1.119657,-0.620118 4.754235,-3.496774 l 5.271,-4.426951 q 0.34451,-0.120579 0.930176,-0.120579 0.585667,0 0.585667,0.671795 0,0.72347 -2.773304,3.910186 -2.773304,3.169489 -2.773304,3.737931 z"
         style="font-family:'Vladimir Script';-inkscape-font-specification:'Vladimir Script';fill:#7584ae"
         id="path912" />
      <path
         d="m 95.757949,36.195018 q 4.737011,-4.013539 6.649041,-4.013539 1.22301,0 1.22301,1.154108 0,1.016303 -2.77331,3.686254 -2.7733,2.652726 -2.7733,3.203941 0,0.551216 0.620118,0.602892 0.620118,0.03445 0.620118,0.292834 0,0.344509 -1.240236,0.344509 -1.429715,0 -1.429715,-1.274686 0,-1.06798 1.378039,-2.704402 0.706245,-0.844048 2.549376,-2.601048 1.37804,-1.309138 1.37804,-1.584745 0,-0.223932 -0.31006,-0.223932 -0.98186,0 -4.271925,2.618275 -2.738852,2.170411 -4.065215,3.565676 -1.688098,1.774225 -2.049833,1.774225 -0.275608,0 -0.499539,-0.258382 -0.223932,-0.275608 -0.223932,-0.568441 0,-0.396187 2.377118,-3.203941 l 2.842205,-3.358971 -4.409725,3.582902 -3.255617,2.497696 q -2.480471,1.688098 -3.806833,1.688098 -0.223932,0 -0.223932,-0.206706 0,-0.310059 0.482314,-0.413412 0.654569,-0.120578 1.533069,-0.516764 1.25746,-0.551216 5.133195,-3.686255 3.479549,-2.82498 5.012618,-4.323598 0.258382,-0.258382 0.809598,-0.620117 0.275607,-0.103353 0.585666,-0.103353 0.292833,0 0.585667,0.206706 0.310059,0.18948 0.310059,0.465088 0,0.310059 -2.756079,3.979088 z"
         style="font-family:'Vladimir Script';-inkscape-font-specification:'Vladimir Script';fill:#7584ae"
         id="path914" />
      <path
         d="m 105.49035,38.623812 q -0.86128,0.206706 -3.23839,1.584745 -2.10151,1.205784 -3.18672,1.205784 -0.206706,0 -0.206706,-0.223931 0,-0.310059 0.447863,-0.378961 1.050753,-0.172255 2.962783,-1.291912 2.10151,-1.205784 3.42787,-1.515843 0.79238,-1.912029 3.27285,-4.013539 2.6355,-2.256539 4.49585,-2.256539 1.37804,0 1.37804,1.171333 0,1.533069 -2.91111,3.341745 -2.13596,1.343588 -4.37527,2.10151 -0.24116,0.551216 -0.24116,1.154108 0,0.895725 0.62012,1.171333 0.31006,0.120578 1.17133,0.155029 0.62012,0.01723 0.62012,0.292834 0,0.430637 -2.11874,0.430637 -2.23931,0 -2.23931,-1.94648 0,-0.447863 0.12058,-0.981853 z m 2.27376,-0.964628 q 1.58475,-0.775147 3.34175,-2.101509 2.34266,-1.739775 2.34266,-2.756079 0,-0.413411 -0.37896,-0.413411 -1.11965,0 -3.04891,2.067058 -1.72255,1.877579 -2.25654,3.203941 z"
         style="font-family:'Vladimir Script';-inkscape-font-specification:'Vladimir Script';fill:#7584ae"
         id="path916" />
      <path
         d="m 165.83124,31.475234 h 1.58474 q 1.15411,0.120578 1.15411,0.706245 0,0.378961 -0.84405,0.378961 l -1.11966,-0.0689 -1.61919,0.01723 -3.514,4.461402 q -3.56568,4.444176 -3.94464,4.444176 -0.32728,0 -0.60289,-0.499539 -0.25838,-0.430637 -0.25838,-0.792373 0,-0.53399 5.85666,-7.613666 h -1.34358 q -2.80776,0.01723 -8.35437,0.327284 l -5.82221,4.960941 -2.25654,2.015382 q -1.8259,1.584745 -2.22209,1.584745 -0.48231,0 -0.48231,-0.499539 0,-0.620117 4.97816,-4.754235 l 3.94464,-3.272843 q -7.9065,0.361736 -8.16488,0.775147 v 0.01723 q 0,0.327284 2.46324,0.327284 l 2.30822,-0.03445 q 0.46509,-0.01722 0.46509,0.206706 0,0.482314 -3.75516,0.482314 -3.20394,0 -3.20394,-0.809598 0,-1.03353 1.8948,-1.41249 0.53399,-0.120579 2.65273,-0.258383 l 6.71794,-0.447862 q 4.06522,-3.358971 11.62721,-8.716098 9.62904,-6.804068 11.4894,-6.804068 0.93017,0 0.93017,1.205784 0,1.016304 -2.42879,4.030765 z m -2.46325,0 8.07876,-9.801303 1.49861,-1.825902 q 0.96463,-1.22301 1.27469,-1.877579 v -0.0689 q 0,-0.18948 -0.17225,-0.18948 -0.8096,0 -10.23194,6.890196 l -9.4568,7.027999 z"
         style="font-family:'Vladimir Script';-inkscape-font-specification:'Vladimir Script';fill:#7584ae"
         id="path918" />
      <path
         d="m 171.99796,35.850508 -4.2547,3.203941 q -3.4451,2.359892 -5.04707,2.359892 -0.2067,0 -0.2067,-0.206706 0,-0.327284 0.63734,-0.430637 0.72347,-0.103353 1.67087,-0.620118 1.13688,-0.602892 3.87574,-2.6355 1.99815,-1.446941 4.22024,-3.203941 2.5666,-3.841284 7.06245,-8.337136 4.99539,-4.995392 6.70072,-4.995392 0.79237,0 0.79237,0.844049 0,2.170412 -5.09875,6.941872 -3.22116,2.997235 -7.01077,5.80499 -0.8785,0.654568 -2.18764,2.773304 -1.36081,2.170411 -1.36081,3.066137 0,0.430637 0.9474,0.430637 0.22393,0 0.22393,0.275608 0,0.344509 -0.89572,0.344509 -1.41249,0 -1.41249,-1.446941 0,-1.41249 1.34359,-4.168568 z m 14.53831,-14.331607 q -0.6718,0 -5.32268,5.253774 -4.42695,5.029843 -5.63273,6.907421 11.26547,-9.146734 11.26547,-11.885587 0,-0.275608 -0.31006,-0.275608 z"
         style="font-family:'Vladimir Script';-inkscape-font-specification:'Vladimir Script';fill:#7584ae"
         id="path920" />
      <path
         d="m 188.43107,28.443548 q -0.82682,0 -0.82682,-0.844049 0,-0.706245 0.84405,-1.274686 0.75792,-0.516765 1.51584,-0.516765 0.89573,0 0.89573,0.981853 0,0.706245 -0.89573,1.205784 -0.77515,0.447863 -1.53307,0.447863 z m -7.61366,11.937264 q 0,0.465088 0.99908,0.465088 0.22393,0 0.22393,0.275608 0,0.327284 -1.13689,0.327284 -1.29191,0 -1.29191,-1.240235 0,-1.446941 3.84129,-6.046147 l -4.70256,3.841284 q -4.16857,3.410647 -6.04615,3.410647 -0.2067,0 -0.2067,-0.223931 0,-0.310059 0.34451,-0.378961 1.0852,-0.206706 1.98093,-0.706245 1.11965,-0.620118 4.75423,-3.496774 l 5.271,-4.426951 q 0.34451,-0.120579 0.93018,-0.120579 0.58566,0 0.58566,0.671795 0,0.72347 -2.7733,3.910186 -2.7733,3.169489 -2.7733,3.737931 z"
         style="font-family:'Vladimir Script';-inkscape-font-specification:'Vladimir Script';fill:#7584ae"
         id="path922" />
    </g>
    <path
       style="fill:#e73632;stroke:#e73632;stroke-width:0.264583px;stroke-linecap:butt;stroke-linejoin:miter;stroke-opacity:1;fill-opacity:1"
       d="m 123.75,15.086653 7.78984,-7.9870515 16.26992,11.8326695 -14.88944,24.454183 -31.751,-25.045817 11.53686,-11.5368523 z"
       id="path17354" />
  </g>
</svg>
