<?xml version="1.0" encoding="UTF-8" standalone="no"?>
<!-- Created with Inkscape (http://www.inkscape.org/) -->

<svg
   width="200"
   height="200"
   viewBox="0 0 52.916665 52.916668"
   version="1.1"
   id="svg5"
   inkscape:version="1.1 (c68e22c387, 2021-05-23)"
   sodipodi:docname="small-logo.svg"
   xmlns:inkscape="http://www.inkscape.org/namespaces/inkscape"
   xmlns:sodipodi="http://sodipodi.sourceforge.net/DTD/sodipodi-0.dtd"
   xmlns="http://www.w3.org/2000/svg"
   xmlns:svg="http://www.w3.org/2000/svg">
  <sodipodi:namedview
     id="namedview7"
     pagecolor="#ffffff"
     bordercolor="#666666"
     borderopacity="1.0"
     inkscape:pageshadow="2"
     inkscape:pageopacity="0.52941176"
     inkscape:pagecheckerboard="true"
     inkscape:document-units="mm"
     showgrid="false"
     units="px"
     inkscape:zoom="1.8973437"
     inkscape:cx="113.05279"
     inkscape:cy="176.03558"
     inkscape:window-width="1500"
     inkscape:window-height="938"
     inkscape:window-x="-6"
     inkscape:window-y="-6"
     inkscape:window-maximized="1"
     inkscape:current-layer="layer1" />
  <defs
     id="defs2" />
  <g
     inkscape:label="Layer 1"
     inkscape:groupmode="layer"
     id="layer1">
    <path
       style="display:inline;fill:none;stroke:#e73632;stroke-width:0.96677;stroke-linecap:butt;stroke-linejoin:miter;stroke-miterlimit:4;stroke-dasharray:none;stroke-opacity:1"
       d="m 26.968738,3.5076035 c -1.907801,2.0851679 1.332635,3.9706368 1.766687,1.5653448 -0.85723,-2.7580885 -4.206334,-1.8058005 -7.224558,1.558561 -5.993383,6.6807287 -11.443789,24.7325517 -3.272981,34.6000427 7.388584,8.922843 16.40617,7.45346 20.430718,2.898328 C 41.390169,41.049515 41.309943,33.126842 33.269857,29.683728 29.114846,27.904375 12.736058,25.258964 21.510867,6.6315093"
       id="path1274"
       sodipodi:nodetypes="ccssssc" />
    <path
       style="display:inline;fill:none;stroke:#e73632;stroke-width:0.96677;stroke-linecap:butt;stroke-linejoin:miter;stroke-miterlimit:4;stroke-dasharray:none;stroke-opacity:1"
       d="M 30.30755,4.6131331 C 28.635797,-1.8392562 22.107549,3.7485318 20.88744,4.9170926 -3.7911773,27.810509 19.343804,62.409378 39.822525,48.061172 47.11346,42.952855 45.783128,30.293807 35.573844,26.923809 30.416655,26.303509 14.4137,16.330587 24.286292,6.3807951 25.493,9.9646173 31.461661,9.067583 30.30755,4.6131331 Z"
       id="path1274-5"
       sodipodi:nodetypes="scsccs" />
    <path
       style="display:inline;fill:#e73632;fill-opacity:1;stroke:#e73632;stroke-width:0.96677;stroke-linecap:butt;stroke-linejoin:miter;stroke-miterlimit:4;stroke-dasharray:none;stroke-opacity:1"
       d="m 17.503129,21.916246 c 3.324293,9.479058 12.435528,9.140644 16.205284,12.546018 1.44165,1.302305 3.535272,5.171867 0.940952,7.527611 C 29.569328,48.233399 13.776001,38.52426 17.503129,21.916246 Z"
       id="path7746"
       sodipodi:nodetypes="cscc" />
  </g>
</svg>
